G04 #@! TF.GenerationSoftware,KiCad,Pcbnew,(5.1.0-rc1-9-g8f320697a)*
G04 #@! TF.CreationDate,2019-02-20T21:31:05+01:00
G04 #@! TF.ProjectId,kicad,6b696361-642e-46b6-9963-61645f706362,rev?*
G04 #@! TF.SameCoordinates,Original*
G04 #@! TF.FileFunction,Other,User*
%FSLAX46Y46*%
G04 Gerber Fmt 4.6, Leading zero omitted, Abs format (unit mm)*
G04 Created by KiCad (PCBNEW (5.1.0-rc1-9-g8f320697a)) date 2019-02-20 21:31:05*
%MOMM*%
%LPD*%
G04 APERTURE LIST*
%ADD10C,0.050000*%
G04 APERTURE END LIST*
D10*
X161250000Y-98500000D02*
G75*
G03X161250000Y-98500000I-2250000J0D01*
G01*
X211250000Y-48500000D02*
G75*
G03X211250000Y-48500000I-2250000J0D01*
G01*
X211250000Y-98500000D02*
G75*
G03X211250000Y-98500000I-2250000J0D01*
G01*
X202140000Y-96790000D02*
G75*
G03X202140000Y-96790000I-2750000J0D01*
G01*
X204490000Y-96300000D02*
X206990000Y-96300000D01*
X206990000Y-96300000D02*
X206990000Y-91700000D01*
X206990000Y-91700000D02*
X204490000Y-91700000D01*
X204490000Y-91700000D02*
X204490000Y-96300000D01*
X173050000Y-91150000D02*
X174950000Y-91150000D01*
X174950000Y-91150000D02*
X174950000Y-94850000D01*
X174950000Y-94850000D02*
X173050000Y-94850000D01*
X173050000Y-94850000D02*
X173050000Y-91150000D01*
X177950000Y-81175000D02*
X177950000Y-84875000D01*
X176050000Y-81175000D02*
X177950000Y-81175000D01*
X176050000Y-84875000D02*
X176050000Y-81175000D01*
X177950000Y-84875000D02*
X176050000Y-84875000D01*
X171190000Y-92750000D02*
X166590000Y-92750000D01*
X171190000Y-95250000D02*
X171190000Y-92750000D01*
X166590000Y-95250000D02*
X171190000Y-95250000D01*
X166590000Y-92750000D02*
X166590000Y-95250000D01*
X173750000Y-87000000D02*
G75*
G03X173750000Y-87000000I-2750000J0D01*
G01*
X158550000Y-80850000D02*
X158550000Y-85350000D01*
X158550000Y-85350000D02*
X163400000Y-85350000D01*
X163400000Y-85350000D02*
X163400000Y-80850000D01*
X163400000Y-80850000D02*
X158550000Y-80850000D01*
X199360000Y-66350000D02*
X199360000Y-73350000D01*
X199360000Y-73350000D02*
X210460000Y-73350000D01*
X210460000Y-73350000D02*
X210460000Y-66350000D01*
X210460000Y-66350000D02*
X199360000Y-66350000D01*
X199360000Y-81590000D02*
X199360000Y-88590000D01*
X199360000Y-88590000D02*
X210460000Y-88590000D01*
X210460000Y-88590000D02*
X210460000Y-81590000D01*
X210460000Y-81590000D02*
X199360000Y-81590000D01*
X210460000Y-58985000D02*
X199360000Y-58985000D01*
X210460000Y-65985000D02*
X210460000Y-58985000D01*
X199360000Y-65985000D02*
X210460000Y-65985000D01*
X199360000Y-58985000D02*
X199360000Y-65985000D01*
X199360000Y-51110000D02*
X199360000Y-58110000D01*
X199360000Y-58110000D02*
X210460000Y-58110000D01*
X210460000Y-58110000D02*
X210460000Y-51110000D01*
X210460000Y-51110000D02*
X199360000Y-51110000D01*
X210550000Y-73970000D02*
X199450000Y-73970000D01*
X210550000Y-80970000D02*
X210550000Y-73970000D01*
X199450000Y-80970000D02*
X210550000Y-80970000D01*
X199450000Y-73970000D02*
X199450000Y-80970000D01*
X219900000Y-90000000D02*
X219900000Y-100500000D01*
X219900000Y-90000000D02*
X211900000Y-90000000D01*
X211900000Y-100500000D02*
X219900000Y-100500000D01*
X211900000Y-100500000D02*
X211900000Y-90000000D01*
X211900000Y-68860000D02*
X211900000Y-58360000D01*
X211900000Y-68860000D02*
X219900000Y-68860000D01*
X219900000Y-58360000D02*
X211900000Y-58360000D01*
X219900000Y-58360000D02*
X219900000Y-68860000D01*
X219900000Y-68910000D02*
X219900000Y-79410000D01*
X219900000Y-68910000D02*
X211900000Y-68910000D01*
X211900000Y-79410000D02*
X219900000Y-79410000D01*
X211900000Y-79410000D02*
X211900000Y-68910000D01*
X211900000Y-89960000D02*
X211900000Y-79460000D01*
X211900000Y-89960000D02*
X219900000Y-89960000D01*
X219900000Y-79460000D02*
X211900000Y-79460000D01*
X219900000Y-79460000D02*
X219900000Y-89960000D01*
X189920000Y-70950000D02*
X189920000Y-69050000D01*
X189920000Y-69050000D02*
X193620000Y-69050000D01*
X193620000Y-69050000D02*
X193620000Y-70950000D01*
X193620000Y-70950000D02*
X189920000Y-70950000D01*
X186245000Y-70950000D02*
X182545000Y-70950000D01*
X186245000Y-69050000D02*
X186245000Y-70950000D01*
X182545000Y-69050000D02*
X186245000Y-69050000D01*
X182545000Y-70950000D02*
X182545000Y-69050000D01*
X165050000Y-81175000D02*
X166950000Y-81175000D01*
X166950000Y-81175000D02*
X166950000Y-84875000D01*
X166950000Y-84875000D02*
X165050000Y-84875000D01*
X165050000Y-84875000D02*
X165050000Y-81175000D01*
X165300000Y-86350000D02*
X165300000Y-86100000D01*
X165300000Y-86100000D02*
X165050000Y-86100000D01*
X157800000Y-86350000D02*
X157800000Y-86100000D01*
X157800000Y-86100000D02*
X158050000Y-86100000D01*
X158050000Y-95600000D02*
X157800000Y-95600000D01*
X157800000Y-95600000D02*
X157800000Y-95350000D01*
X165050000Y-95600000D02*
X165300000Y-95600000D01*
X165300000Y-95600000D02*
X165300000Y-95350000D01*
X157800000Y-95350000D02*
X157800000Y-86350000D01*
X165050000Y-95600000D02*
X158050000Y-95600000D01*
X165300000Y-86350000D02*
X165300000Y-95350000D01*
X158050000Y-86100000D02*
X165050000Y-86100000D01*
X185250000Y-100650000D02*
X194250000Y-100650000D01*
X194250000Y-100650000D02*
X194250000Y-88540000D01*
X194250000Y-88540000D02*
X185250000Y-88540000D01*
X185250000Y-88540000D02*
X185250000Y-100650000D01*
X176400000Y-88600000D02*
X176400000Y-97400000D01*
X183600000Y-88600000D02*
X176400000Y-88600000D01*
X183600000Y-97400000D02*
X183600000Y-88600000D01*
X176400000Y-97400000D02*
X183600000Y-97400000D01*
X215190000Y-47130000D02*
X215190000Y-58330000D01*
X215190000Y-58330000D02*
X218790000Y-58330000D01*
X218790000Y-58330000D02*
X218790000Y-47130000D01*
X218790000Y-47130000D02*
X215190000Y-47130000D01*
M02*
