G04 #@! TF.GenerationSoftware,KiCad,Pcbnew,(5.1.0-rc1-9-g8f320697a)*
G04 #@! TF.CreationDate,2019-02-20T21:31:05+01:00
G04 #@! TF.ProjectId,kicad,6b696361-642e-46b6-9963-61645f706362,rev?*
G04 #@! TF.SameCoordinates,Original*
G04 #@! TF.FileFunction,Legend,Top*
G04 #@! TF.FilePolarity,Positive*
%FSLAX46Y46*%
G04 Gerber Fmt 4.6, Leading zero omitted, Abs format (unit mm)*
G04 Created by KiCad (PCBNEW (5.1.0-rc1-9-g8f320697a)) date 2019-02-20 21:31:05*
%MOMM*%
%LPD*%
G04 APERTURE LIST*
%ADD10C,0.150000*%
%ADD11C,0.120000*%
%ADD12C,0.200000*%
%ADD13C,0.381000*%
%ADD14C,0.177800*%
%ADD15C,0.152400*%
%ADD16C,0.254000*%
%ADD17C,0.203200*%
%ADD18C,0.101600*%
G04 APERTURE END LIST*
D10*
X214000000Y-49261904D02*
X213952380Y-49357142D01*
X213952380Y-49500000D01*
X214000000Y-49642857D01*
X214095238Y-49738095D01*
X214190476Y-49785714D01*
X214380952Y-49833333D01*
X214523809Y-49833333D01*
X214714285Y-49785714D01*
X214809523Y-49738095D01*
X214904761Y-49642857D01*
X214952380Y-49500000D01*
X214952380Y-49404761D01*
X214904761Y-49261904D01*
X214857142Y-49214285D01*
X214523809Y-49214285D01*
X214523809Y-49404761D01*
X214952380Y-48785714D02*
X213952380Y-48785714D01*
X214952380Y-48214285D01*
X213952380Y-48214285D01*
X214952380Y-47738095D02*
X213952380Y-47738095D01*
X213952380Y-47500000D01*
X214000000Y-47357142D01*
X214095238Y-47261904D01*
X214190476Y-47214285D01*
X214380952Y-47166666D01*
X214523809Y-47166666D01*
X214714285Y-47214285D01*
X214809523Y-47261904D01*
X214904761Y-47357142D01*
X214952380Y-47500000D01*
X214952380Y-47738095D01*
X213952380Y-52407619D02*
X213952380Y-51788571D01*
X214333333Y-52121904D01*
X214333333Y-51979047D01*
X214380952Y-51883809D01*
X214428571Y-51836190D01*
X214523809Y-51788571D01*
X214761904Y-51788571D01*
X214857142Y-51836190D01*
X214904761Y-51883809D01*
X214952380Y-51979047D01*
X214952380Y-52264761D01*
X214904761Y-52360000D01*
X214857142Y-52407619D01*
X214904761Y-51312380D02*
X214952380Y-51312380D01*
X215047619Y-51360000D01*
X215095238Y-51407619D01*
X213952380Y-50979047D02*
X213952380Y-50360000D01*
X214333333Y-50693333D01*
X214333333Y-50550476D01*
X214380952Y-50455238D01*
X214428571Y-50407619D01*
X214523809Y-50360000D01*
X214761904Y-50360000D01*
X214857142Y-50407619D01*
X214904761Y-50455238D01*
X214952380Y-50550476D01*
X214952380Y-50836190D01*
X214904761Y-50931428D01*
X214857142Y-50979047D01*
X213952380Y-54190476D02*
X213952380Y-54666666D01*
X214428571Y-54714285D01*
X214380952Y-54666666D01*
X214333333Y-54571428D01*
X214333333Y-54333333D01*
X214380952Y-54238095D01*
X214428571Y-54190476D01*
X214523809Y-54142857D01*
X214761904Y-54142857D01*
X214857142Y-54190476D01*
X214904761Y-54238095D01*
X214952380Y-54333333D01*
X214952380Y-54571428D01*
X214904761Y-54666666D01*
X214857142Y-54714285D01*
X213952380Y-53857142D02*
X214952380Y-53523809D01*
X213952380Y-53190476D01*
X214952380Y-57548095D02*
X213952380Y-57548095D01*
X213952380Y-57310000D01*
X214000000Y-57167142D01*
X214095238Y-57071904D01*
X214190476Y-57024285D01*
X214380952Y-56976666D01*
X214523809Y-56976666D01*
X214714285Y-57024285D01*
X214809523Y-57071904D01*
X214904761Y-57167142D01*
X214952380Y-57310000D01*
X214952380Y-57548095D01*
X213952380Y-56643333D02*
X213952380Y-56024285D01*
X214333333Y-56357619D01*
X214333333Y-56214761D01*
X214380952Y-56119523D01*
X214428571Y-56071904D01*
X214523809Y-56024285D01*
X214761904Y-56024285D01*
X214857142Y-56071904D01*
X214904761Y-56119523D01*
X214952380Y-56214761D01*
X214952380Y-56500476D01*
X214904761Y-56595714D01*
X214857142Y-56643333D01*
X211071428Y-96380952D02*
X211071428Y-95619047D01*
X211452380Y-96000000D02*
X210690476Y-96000000D01*
X211071428Y-92380952D02*
X211071428Y-91619047D01*
X211452380Y-92000000D02*
X210690476Y-92000000D01*
X210500000Y-88761904D02*
X210452380Y-88857142D01*
X210452380Y-89000000D01*
X210500000Y-89142857D01*
X210595238Y-89238095D01*
X210690476Y-89285714D01*
X210880952Y-89333333D01*
X211023809Y-89333333D01*
X211214285Y-89285714D01*
X211309523Y-89238095D01*
X211404761Y-89142857D01*
X211452380Y-89000000D01*
X211452380Y-88904761D01*
X211404761Y-88761904D01*
X211357142Y-88714285D01*
X211023809Y-88714285D01*
X211023809Y-88904761D01*
X211452380Y-88285714D02*
X210452380Y-88285714D01*
X211452380Y-87714285D01*
X210452380Y-87714285D01*
X211452380Y-87238095D02*
X210452380Y-87238095D01*
X210452380Y-87000000D01*
X210500000Y-86857142D01*
X210595238Y-86761904D01*
X210690476Y-86714285D01*
X210880952Y-86666666D01*
X211023809Y-86666666D01*
X211214285Y-86714285D01*
X211309523Y-86761904D01*
X211404761Y-86857142D01*
X211452380Y-87000000D01*
X211452380Y-87238095D01*
X211071428Y-85476190D02*
X211071428Y-84714285D01*
X211357142Y-82261904D02*
X211404761Y-82309523D01*
X211452380Y-82452380D01*
X211452380Y-82547619D01*
X211404761Y-82690476D01*
X211309523Y-82785714D01*
X211214285Y-82833333D01*
X211023809Y-82880952D01*
X210880952Y-82880952D01*
X210690476Y-82833333D01*
X210595238Y-82785714D01*
X210500000Y-82690476D01*
X210452380Y-82547619D01*
X210452380Y-82452380D01*
X210500000Y-82309523D01*
X210547619Y-82261904D01*
X210452380Y-81928571D02*
X211452380Y-81690476D01*
X210738095Y-81500000D01*
X211452380Y-81309523D01*
X210452380Y-81071428D01*
X210452380Y-78000000D02*
X211452380Y-77761904D01*
X210738095Y-77571428D01*
X211452380Y-77380952D01*
X210452380Y-77142857D01*
X210452380Y-76857142D02*
X211452380Y-76619047D01*
X210738095Y-76428571D01*
X211452380Y-76238095D01*
X210452380Y-76000000D01*
X210928571Y-73309523D02*
X210976190Y-73166666D01*
X211023809Y-73119047D01*
X211119047Y-73071428D01*
X211261904Y-73071428D01*
X211357142Y-73119047D01*
X211404761Y-73166666D01*
X211452380Y-73261904D01*
X211452380Y-73642857D01*
X210452380Y-73642857D01*
X210452380Y-73309523D01*
X210500000Y-73214285D01*
X210547619Y-73166666D01*
X210642857Y-73119047D01*
X210738095Y-73119047D01*
X210833333Y-73166666D01*
X210880952Y-73214285D01*
X210928571Y-73309523D01*
X210928571Y-73642857D01*
X211452380Y-72166666D02*
X211452380Y-72642857D01*
X210452380Y-72642857D01*
X210452380Y-71833333D02*
X211261904Y-71833333D01*
X211357142Y-71785714D01*
X211404761Y-71738095D01*
X211452380Y-71642857D01*
X211452380Y-71452380D01*
X211404761Y-71357142D01*
X211357142Y-71309523D01*
X211261904Y-71261904D01*
X210452380Y-71261904D01*
X210928571Y-70785714D02*
X210928571Y-70452380D01*
X211452380Y-70309523D02*
X211452380Y-70785714D01*
X210452380Y-70785714D01*
X210452380Y-70309523D01*
X210500000Y-67666666D02*
X210452380Y-67761904D01*
X210452380Y-67904761D01*
X210500000Y-68047619D01*
X210595238Y-68142857D01*
X210690476Y-68190476D01*
X210880952Y-68238095D01*
X211023809Y-68238095D01*
X211214285Y-68190476D01*
X211309523Y-68142857D01*
X211404761Y-68047619D01*
X211452380Y-67904761D01*
X211452380Y-67809523D01*
X211404761Y-67666666D01*
X211357142Y-67619047D01*
X211023809Y-67619047D01*
X211023809Y-67809523D01*
X211452380Y-66619047D02*
X210976190Y-66952380D01*
X211452380Y-67190476D02*
X210452380Y-67190476D01*
X210452380Y-66809523D01*
X210500000Y-66714285D01*
X210547619Y-66666666D01*
X210642857Y-66619047D01*
X210785714Y-66619047D01*
X210880952Y-66666666D01*
X210928571Y-66714285D01*
X210976190Y-66809523D01*
X210976190Y-67190476D01*
X210928571Y-66190476D02*
X210928571Y-65857142D01*
X211452380Y-65714285D02*
X211452380Y-66190476D01*
X210452380Y-66190476D01*
X210452380Y-65714285D01*
X210928571Y-65285714D02*
X210928571Y-64952380D01*
X211452380Y-64809523D02*
X211452380Y-65285714D01*
X210452380Y-65285714D01*
X210452380Y-64809523D01*
X211452380Y-64380952D02*
X210452380Y-64380952D01*
X211452380Y-63809523D01*
X210452380Y-63809523D01*
X211452380Y-61642857D02*
X210976190Y-61976190D01*
X211452380Y-62214285D02*
X210452380Y-62214285D01*
X210452380Y-61833333D01*
X210500000Y-61738095D01*
X210547619Y-61690476D01*
X210642857Y-61642857D01*
X210785714Y-61642857D01*
X210880952Y-61690476D01*
X210928571Y-61738095D01*
X210976190Y-61833333D01*
X210976190Y-62214285D01*
X210928571Y-61214285D02*
X210928571Y-60880952D01*
X211452380Y-60738095D02*
X211452380Y-61214285D01*
X210452380Y-61214285D01*
X210452380Y-60738095D01*
X211452380Y-60309523D02*
X210452380Y-60309523D01*
X210452380Y-60071428D01*
X210500000Y-59928571D01*
X210595238Y-59833333D01*
X210690476Y-59785714D01*
X210880952Y-59738095D01*
X211023809Y-59738095D01*
X211214285Y-59785714D01*
X211309523Y-59833333D01*
X211404761Y-59928571D01*
X211452380Y-60071428D01*
X211452380Y-60309523D01*
X184433333Y-104222380D02*
X184242857Y-104222380D01*
X184147619Y-104270000D01*
X184100000Y-104317619D01*
X184004761Y-104460476D01*
X183957142Y-104650952D01*
X183957142Y-105031904D01*
X184004761Y-105127142D01*
X184052380Y-105174761D01*
X184147619Y-105222380D01*
X184338095Y-105222380D01*
X184433333Y-105174761D01*
X184480952Y-105127142D01*
X184528571Y-105031904D01*
X184528571Y-104793809D01*
X184480952Y-104698571D01*
X184433333Y-104650952D01*
X184338095Y-104603333D01*
X184147619Y-104603333D01*
X184052380Y-104650952D01*
X184004761Y-104698571D01*
X183957142Y-104793809D01*
X184861904Y-104222380D02*
X185480952Y-104222380D01*
X185147619Y-104603333D01*
X185290476Y-104603333D01*
X185385714Y-104650952D01*
X185433333Y-104698571D01*
X185480952Y-104793809D01*
X185480952Y-105031904D01*
X185433333Y-105127142D01*
X185385714Y-105174761D01*
X185290476Y-105222380D01*
X185004761Y-105222380D01*
X184909523Y-105174761D01*
X184861904Y-105127142D01*
X185909523Y-105127142D02*
X185957142Y-105174761D01*
X185909523Y-105222380D01*
X185861904Y-105174761D01*
X185909523Y-105127142D01*
X185909523Y-105222380D01*
X186528571Y-104650952D02*
X186433333Y-104603333D01*
X186385714Y-104555714D01*
X186338095Y-104460476D01*
X186338095Y-104412857D01*
X186385714Y-104317619D01*
X186433333Y-104270000D01*
X186528571Y-104222380D01*
X186719047Y-104222380D01*
X186814285Y-104270000D01*
X186861904Y-104317619D01*
X186909523Y-104412857D01*
X186909523Y-104460476D01*
X186861904Y-104555714D01*
X186814285Y-104603333D01*
X186719047Y-104650952D01*
X186528571Y-104650952D01*
X186433333Y-104698571D01*
X186385714Y-104746190D01*
X186338095Y-104841428D01*
X186338095Y-105031904D01*
X186385714Y-105127142D01*
X186433333Y-105174761D01*
X186528571Y-105222380D01*
X186719047Y-105222380D01*
X186814285Y-105174761D01*
X186861904Y-105127142D01*
X186909523Y-105031904D01*
X186909523Y-104841428D01*
X186861904Y-104746190D01*
X186814285Y-104698571D01*
X186719047Y-104650952D01*
X187528571Y-104222380D02*
X187623809Y-104222380D01*
X187719047Y-104270000D01*
X187766666Y-104317619D01*
X187814285Y-104412857D01*
X187861904Y-104603333D01*
X187861904Y-104841428D01*
X187814285Y-105031904D01*
X187766666Y-105127142D01*
X187719047Y-105174761D01*
X187623809Y-105222380D01*
X187528571Y-105222380D01*
X187433333Y-105174761D01*
X187385714Y-105127142D01*
X187338095Y-105031904D01*
X187290476Y-104841428D01*
X187290476Y-104603333D01*
X187338095Y-104412857D01*
X187385714Y-104317619D01*
X187433333Y-104270000D01*
X187528571Y-104222380D01*
X188480952Y-104222380D02*
X188576190Y-104222380D01*
X188671428Y-104270000D01*
X188719047Y-104317619D01*
X188766666Y-104412857D01*
X188814285Y-104603333D01*
X188814285Y-104841428D01*
X188766666Y-105031904D01*
X188719047Y-105127142D01*
X188671428Y-105174761D01*
X188576190Y-105222380D01*
X188480952Y-105222380D01*
X188385714Y-105174761D01*
X188338095Y-105127142D01*
X188290476Y-105031904D01*
X188242857Y-104841428D01*
X188242857Y-104603333D01*
X188290476Y-104412857D01*
X188338095Y-104317619D01*
X188385714Y-104270000D01*
X188480952Y-104222380D01*
X190004761Y-105222380D02*
X190004761Y-104555714D01*
X190004761Y-104650952D02*
X190052380Y-104603333D01*
X190147619Y-104555714D01*
X190290476Y-104555714D01*
X190385714Y-104603333D01*
X190433333Y-104698571D01*
X190433333Y-105222380D01*
X190433333Y-104698571D02*
X190480952Y-104603333D01*
X190576190Y-104555714D01*
X190719047Y-104555714D01*
X190814285Y-104603333D01*
X190861904Y-104698571D01*
X190861904Y-105222380D01*
X191338095Y-105222380D02*
X191338095Y-104555714D01*
X191338095Y-104650952D02*
X191385714Y-104603333D01*
X191480952Y-104555714D01*
X191623809Y-104555714D01*
X191719047Y-104603333D01*
X191766666Y-104698571D01*
X191766666Y-105222380D01*
X191766666Y-104698571D02*
X191814285Y-104603333D01*
X191909523Y-104555714D01*
X192052380Y-104555714D01*
X192147619Y-104603333D01*
X192195238Y-104698571D01*
X192195238Y-105222380D01*
D11*
X156200000Y-103500000D02*
X220000000Y-103500000D01*
X156200000Y-102800000D02*
X156200000Y-104086421D01*
X220000000Y-102800000D02*
X220000000Y-104086421D01*
X220000000Y-103500000D02*
X218873496Y-104086421D01*
X220000000Y-103500000D02*
X218873496Y-102913579D01*
X156200000Y-103500000D02*
X157326504Y-104086421D01*
X156200000Y-103500000D02*
X157326504Y-102913579D01*
D12*
X162619047Y-98952380D02*
X162619047Y-97952380D01*
X163047619Y-98952380D02*
X163047619Y-98428571D01*
X163000000Y-98333333D01*
X162904761Y-98285714D01*
X162761904Y-98285714D01*
X162666666Y-98333333D01*
X162619047Y-98380952D01*
X163380952Y-98285714D02*
X163761904Y-98285714D01*
X163523809Y-97952380D02*
X163523809Y-98809523D01*
X163571428Y-98904761D01*
X163666666Y-98952380D01*
X163761904Y-98952380D01*
X163952380Y-98285714D02*
X164333333Y-98285714D01*
X164095238Y-97952380D02*
X164095238Y-98809523D01*
X164142857Y-98904761D01*
X164238095Y-98952380D01*
X164333333Y-98952380D01*
X164666666Y-98285714D02*
X164666666Y-99285714D01*
X164666666Y-98333333D02*
X164761904Y-98285714D01*
X164952380Y-98285714D01*
X165047619Y-98333333D01*
X165095238Y-98380952D01*
X165142857Y-98476190D01*
X165142857Y-98761904D01*
X165095238Y-98857142D01*
X165047619Y-98904761D01*
X164952380Y-98952380D01*
X164761904Y-98952380D01*
X164666666Y-98904761D01*
X165523809Y-98904761D02*
X165619047Y-98952380D01*
X165809523Y-98952380D01*
X165904761Y-98904761D01*
X165952380Y-98809523D01*
X165952380Y-98761904D01*
X165904761Y-98666666D01*
X165809523Y-98619047D01*
X165666666Y-98619047D01*
X165571428Y-98571428D01*
X165523809Y-98476190D01*
X165523809Y-98428571D01*
X165571428Y-98333333D01*
X165666666Y-98285714D01*
X165809523Y-98285714D01*
X165904761Y-98333333D01*
X166380952Y-98857142D02*
X166428571Y-98904761D01*
X166380952Y-98952380D01*
X166333333Y-98904761D01*
X166380952Y-98857142D01*
X166380952Y-98952380D01*
X166380952Y-98333333D02*
X166428571Y-98380952D01*
X166380952Y-98428571D01*
X166333333Y-98380952D01*
X166380952Y-98333333D01*
X166380952Y-98428571D01*
X167571428Y-97904761D02*
X166714285Y-99190476D01*
X168619047Y-97904761D02*
X167761904Y-99190476D01*
X169380952Y-98285714D02*
X169380952Y-99095238D01*
X169333333Y-99190476D01*
X169285714Y-99238095D01*
X169190476Y-99285714D01*
X169047619Y-99285714D01*
X168952380Y-99238095D01*
X169380952Y-98904761D02*
X169285714Y-98952380D01*
X169095238Y-98952380D01*
X169000000Y-98904761D01*
X168952380Y-98857142D01*
X168904761Y-98761904D01*
X168904761Y-98476190D01*
X168952380Y-98380952D01*
X169000000Y-98333333D01*
X169095238Y-98285714D01*
X169285714Y-98285714D01*
X169380952Y-98333333D01*
X169857142Y-98952380D02*
X169857142Y-98285714D01*
X169857142Y-97952380D02*
X169809523Y-98000000D01*
X169857142Y-98047619D01*
X169904761Y-98000000D01*
X169857142Y-97952380D01*
X169857142Y-98047619D01*
X170190476Y-98285714D02*
X170571428Y-98285714D01*
X170333333Y-97952380D02*
X170333333Y-98809523D01*
X170380952Y-98904761D01*
X170476190Y-98952380D01*
X170571428Y-98952380D01*
X170904761Y-98952380D02*
X170904761Y-97952380D01*
X171333333Y-98952380D02*
X171333333Y-98428571D01*
X171285714Y-98333333D01*
X171190476Y-98285714D01*
X171047619Y-98285714D01*
X170952380Y-98333333D01*
X170904761Y-98380952D01*
X172238095Y-98285714D02*
X172238095Y-98952380D01*
X171809523Y-98285714D02*
X171809523Y-98809523D01*
X171857142Y-98904761D01*
X171952380Y-98952380D01*
X172095238Y-98952380D01*
X172190476Y-98904761D01*
X172238095Y-98857142D01*
X172714285Y-98952380D02*
X172714285Y-97952380D01*
X172714285Y-98333333D02*
X172809523Y-98285714D01*
X173000000Y-98285714D01*
X173095238Y-98333333D01*
X173142857Y-98380952D01*
X173190476Y-98476190D01*
X173190476Y-98761904D01*
X173142857Y-98857142D01*
X173095238Y-98904761D01*
X173000000Y-98952380D01*
X172809523Y-98952380D01*
X172714285Y-98904761D01*
X173619047Y-98857142D02*
X173666666Y-98904761D01*
X173619047Y-98952380D01*
X173571428Y-98904761D01*
X173619047Y-98857142D01*
X173619047Y-98952380D01*
X174523809Y-98904761D02*
X174428571Y-98952380D01*
X174238095Y-98952380D01*
X174142857Y-98904761D01*
X174095238Y-98857142D01*
X174047619Y-98761904D01*
X174047619Y-98476190D01*
X174095238Y-98380952D01*
X174142857Y-98333333D01*
X174238095Y-98285714D01*
X174428571Y-98285714D01*
X174523809Y-98333333D01*
X175095238Y-98952380D02*
X175000000Y-98904761D01*
X174952380Y-98857142D01*
X174904761Y-98761904D01*
X174904761Y-98476190D01*
X174952380Y-98380952D01*
X175000000Y-98333333D01*
X175095238Y-98285714D01*
X175238095Y-98285714D01*
X175333333Y-98333333D01*
X175380952Y-98380952D01*
X175428571Y-98476190D01*
X175428571Y-98761904D01*
X175380952Y-98857142D01*
X175333333Y-98904761D01*
X175238095Y-98952380D01*
X175095238Y-98952380D01*
X175857142Y-98952380D02*
X175857142Y-98285714D01*
X175857142Y-98380952D02*
X175904761Y-98333333D01*
X176000000Y-98285714D01*
X176142857Y-98285714D01*
X176238095Y-98333333D01*
X176285714Y-98428571D01*
X176285714Y-98952380D01*
X176285714Y-98428571D02*
X176333333Y-98333333D01*
X176428571Y-98285714D01*
X176571428Y-98285714D01*
X176666666Y-98333333D01*
X176714285Y-98428571D01*
X176714285Y-98952380D01*
X177904761Y-97904761D02*
X177047619Y-99190476D01*
X178380952Y-98952380D02*
X178285714Y-98904761D01*
X178238095Y-98857142D01*
X178190476Y-98761904D01*
X178190476Y-98476190D01*
X178238095Y-98380952D01*
X178285714Y-98333333D01*
X178380952Y-98285714D01*
X178523809Y-98285714D01*
X178619047Y-98333333D01*
X178666666Y-98380952D01*
X178714285Y-98476190D01*
X178714285Y-98761904D01*
X178666666Y-98857142D01*
X178619047Y-98904761D01*
X178523809Y-98952380D01*
X178380952Y-98952380D01*
X179285714Y-98952380D02*
X179190476Y-98904761D01*
X179142857Y-98809523D01*
X179142857Y-97952380D01*
X179809523Y-98952380D02*
X179714285Y-98904761D01*
X179666666Y-98809523D01*
X179666666Y-97952380D01*
X180190476Y-98952380D02*
X180190476Y-98285714D01*
X180190476Y-97952380D02*
X180142857Y-98000000D01*
X180190476Y-98047619D01*
X180238095Y-98000000D01*
X180190476Y-97952380D01*
X180190476Y-98047619D01*
X180666666Y-98952380D02*
X180666666Y-98285714D01*
X180666666Y-97952380D02*
X180619047Y-98000000D01*
X180666666Y-98047619D01*
X180714285Y-98000000D01*
X180666666Y-97952380D01*
X180666666Y-98047619D01*
X181142857Y-98952380D02*
X181142857Y-98285714D01*
X181142857Y-97952380D02*
X181095238Y-98000000D01*
X181142857Y-98047619D01*
X181190476Y-98000000D01*
X181142857Y-97952380D01*
X181142857Y-98047619D01*
X181523809Y-98285714D02*
X181761904Y-98952380D01*
X182000000Y-98285714D01*
X182761904Y-98904761D02*
X182666666Y-98952380D01*
X182476190Y-98952380D01*
X182380952Y-98904761D01*
X182333333Y-98809523D01*
X182333333Y-98428571D01*
X182380952Y-98333333D01*
X182476190Y-98285714D01*
X182666666Y-98285714D01*
X182761904Y-98333333D01*
X182809523Y-98428571D01*
X182809523Y-98523809D01*
X182333333Y-98619047D01*
X183238095Y-98952380D02*
X183238095Y-98285714D01*
X183238095Y-98476190D02*
X183285714Y-98380952D01*
X183333333Y-98333333D01*
X183428571Y-98285714D01*
X183523809Y-98285714D01*
D10*
X224722380Y-77119047D02*
X224722380Y-77595238D01*
X225198571Y-77642857D01*
X225150952Y-77595238D01*
X225103333Y-77500000D01*
X225103333Y-77261904D01*
X225150952Y-77166666D01*
X225198571Y-77119047D01*
X225293809Y-77071428D01*
X225531904Y-77071428D01*
X225627142Y-77119047D01*
X225674761Y-77166666D01*
X225722380Y-77261904D01*
X225722380Y-77500000D01*
X225674761Y-77595238D01*
X225627142Y-77642857D01*
X224722380Y-76166666D02*
X224722380Y-76642857D01*
X225198571Y-76690476D01*
X225150952Y-76642857D01*
X225103333Y-76547619D01*
X225103333Y-76309523D01*
X225150952Y-76214285D01*
X225198571Y-76166666D01*
X225293809Y-76119047D01*
X225531904Y-76119047D01*
X225627142Y-76166666D01*
X225674761Y-76214285D01*
X225722380Y-76309523D01*
X225722380Y-76547619D01*
X225674761Y-76642857D01*
X225627142Y-76690476D01*
X225627142Y-75690476D02*
X225674761Y-75642857D01*
X225722380Y-75690476D01*
X225674761Y-75738095D01*
X225627142Y-75690476D01*
X225722380Y-75690476D01*
X224722380Y-75023809D02*
X224722380Y-74928571D01*
X224770000Y-74833333D01*
X224817619Y-74785714D01*
X224912857Y-74738095D01*
X225103333Y-74690476D01*
X225341428Y-74690476D01*
X225531904Y-74738095D01*
X225627142Y-74785714D01*
X225674761Y-74833333D01*
X225722380Y-74928571D01*
X225722380Y-75023809D01*
X225674761Y-75119047D01*
X225627142Y-75166666D01*
X225531904Y-75214285D01*
X225341428Y-75261904D01*
X225103333Y-75261904D01*
X224912857Y-75214285D01*
X224817619Y-75166666D01*
X224770000Y-75119047D01*
X224722380Y-75023809D01*
X224722380Y-74071428D02*
X224722380Y-73976190D01*
X224770000Y-73880952D01*
X224817619Y-73833333D01*
X224912857Y-73785714D01*
X225103333Y-73738095D01*
X225341428Y-73738095D01*
X225531904Y-73785714D01*
X225627142Y-73833333D01*
X225674761Y-73880952D01*
X225722380Y-73976190D01*
X225722380Y-74071428D01*
X225674761Y-74166666D01*
X225627142Y-74214285D01*
X225531904Y-74261904D01*
X225341428Y-74309523D01*
X225103333Y-74309523D01*
X224912857Y-74261904D01*
X224817619Y-74214285D01*
X224770000Y-74166666D01*
X224722380Y-74071428D01*
X224722380Y-73119047D02*
X224722380Y-73023809D01*
X224770000Y-72928571D01*
X224817619Y-72880952D01*
X224912857Y-72833333D01*
X225103333Y-72785714D01*
X225341428Y-72785714D01*
X225531904Y-72833333D01*
X225627142Y-72880952D01*
X225674761Y-72928571D01*
X225722380Y-73023809D01*
X225722380Y-73119047D01*
X225674761Y-73214285D01*
X225627142Y-73261904D01*
X225531904Y-73309523D01*
X225341428Y-73357142D01*
X225103333Y-73357142D01*
X224912857Y-73309523D01*
X224817619Y-73261904D01*
X224770000Y-73214285D01*
X224722380Y-73119047D01*
X225722380Y-71595238D02*
X225055714Y-71595238D01*
X225150952Y-71595238D02*
X225103333Y-71547619D01*
X225055714Y-71452380D01*
X225055714Y-71309523D01*
X225103333Y-71214285D01*
X225198571Y-71166666D01*
X225722380Y-71166666D01*
X225198571Y-71166666D02*
X225103333Y-71119047D01*
X225055714Y-71023809D01*
X225055714Y-70880952D01*
X225103333Y-70785714D01*
X225198571Y-70738095D01*
X225722380Y-70738095D01*
X225722380Y-70261904D02*
X225055714Y-70261904D01*
X225150952Y-70261904D02*
X225103333Y-70214285D01*
X225055714Y-70119047D01*
X225055714Y-69976190D01*
X225103333Y-69880952D01*
X225198571Y-69833333D01*
X225722380Y-69833333D01*
X225198571Y-69833333D02*
X225103333Y-69785714D01*
X225055714Y-69690476D01*
X225055714Y-69547619D01*
X225103333Y-69452380D01*
X225198571Y-69404761D01*
X225722380Y-69404761D01*
D11*
X224000000Y-101000000D02*
X224000000Y-46000000D01*
X222000000Y-101000000D02*
X224586421Y-101000000D01*
X222000000Y-46000000D02*
X224586421Y-46000000D01*
X224000000Y-46000000D02*
X224586421Y-47126504D01*
X224000000Y-46000000D02*
X223413579Y-47126504D01*
X224000000Y-101000000D02*
X224586421Y-99873496D01*
X224000000Y-101000000D02*
X223413579Y-99873496D01*
X188270000Y-72650000D02*
G75*
G02X185730000Y-72650000I-1270000J0D01*
G01*
D12*
X181300000Y-72585000D02*
X183250000Y-72585000D01*
X183600000Y-85400000D02*
X183600000Y-72600000D01*
X190400000Y-85400000D02*
X183600000Y-85400000D01*
X190400000Y-72600000D02*
X190400000Y-85400000D01*
X183600000Y-72600000D02*
X190400000Y-72600000D01*
D13*
X157191000Y-79972500D02*
X157191000Y-46190500D01*
X175987000Y-79972500D02*
X157191000Y-79972500D01*
X175987000Y-46190500D02*
X175987000Y-79972500D01*
X157191000Y-46190500D02*
X175987000Y-46190500D01*
D14*
X161174544Y-66140395D02*
X166562697Y-71528549D01*
X166562697Y-71528549D02*
X171950851Y-66140395D01*
X166562697Y-60752241D02*
X171950851Y-66140395D01*
X161174544Y-66140395D02*
X166562697Y-60752241D01*
D15*
X163414000Y-72860500D02*
X163414000Y-76416500D01*
X163414000Y-76416500D02*
X169764000Y-76416500D01*
X169764000Y-72860500D02*
X169764000Y-76416500D01*
X169764000Y-72860500D02*
X163414000Y-72860500D01*
X172939000Y-59271500D02*
X179924000Y-59271500D01*
X172939000Y-61811500D02*
X179924000Y-61811500D01*
D10*
X196070000Y-65810000D02*
X195570000Y-65810000D01*
X179070000Y-65810000D02*
X179570000Y-65810000D01*
X191570000Y-46810000D02*
G75*
G03X191570000Y-46810000I-500000J0D01*
G01*
X186570000Y-46810000D02*
G75*
G03X186570000Y-46810000I-500000J0D01*
G01*
X189070000Y-46810000D02*
G75*
G03X189070000Y-46810000I-500000J0D01*
G01*
X179070000Y-65810000D02*
X179070000Y-45810000D01*
X179070000Y-45810000D02*
X196070000Y-45810000D01*
X196070000Y-45810000D02*
X196070000Y-65810000D01*
D11*
X202010000Y-96790000D02*
G75*
G03X202010000Y-96790000I-2620000J0D01*
G01*
X200430000Y-96790000D02*
X201970000Y-96790000D01*
X196810000Y-96790000D02*
X198350000Y-96790000D01*
X200430000Y-96750000D02*
X201970000Y-96750000D01*
X196810000Y-96750000D02*
X198350000Y-96750000D01*
X196811000Y-96710000D02*
X198350000Y-96710000D01*
X200430000Y-96710000D02*
X201969000Y-96710000D01*
X196812000Y-96670000D02*
X198350000Y-96670000D01*
X200430000Y-96670000D02*
X201968000Y-96670000D01*
X196814000Y-96630000D02*
X198350000Y-96630000D01*
X200430000Y-96630000D02*
X201966000Y-96630000D01*
X196817000Y-96590000D02*
X198350000Y-96590000D01*
X200430000Y-96590000D02*
X201963000Y-96590000D01*
X196821000Y-96550000D02*
X198350000Y-96550000D01*
X200430000Y-96550000D02*
X201959000Y-96550000D01*
X196825000Y-96510000D02*
X198350000Y-96510000D01*
X200430000Y-96510000D02*
X201955000Y-96510000D01*
X196829000Y-96470000D02*
X198350000Y-96470000D01*
X200430000Y-96470000D02*
X201951000Y-96470000D01*
X196834000Y-96430000D02*
X198350000Y-96430000D01*
X200430000Y-96430000D02*
X201946000Y-96430000D01*
X196840000Y-96390000D02*
X198350000Y-96390000D01*
X200430000Y-96390000D02*
X201940000Y-96390000D01*
X196847000Y-96350000D02*
X198350000Y-96350000D01*
X200430000Y-96350000D02*
X201933000Y-96350000D01*
X196854000Y-96310000D02*
X198350000Y-96310000D01*
X200430000Y-96310000D02*
X201926000Y-96310000D01*
X196862000Y-96270000D02*
X198350000Y-96270000D01*
X200430000Y-96270000D02*
X201918000Y-96270000D01*
X196870000Y-96230000D02*
X198350000Y-96230000D01*
X200430000Y-96230000D02*
X201910000Y-96230000D01*
X196879000Y-96190000D02*
X198350000Y-96190000D01*
X200430000Y-96190000D02*
X201901000Y-96190000D01*
X196889000Y-96150000D02*
X198350000Y-96150000D01*
X200430000Y-96150000D02*
X201891000Y-96150000D01*
X196899000Y-96110000D02*
X198350000Y-96110000D01*
X200430000Y-96110000D02*
X201881000Y-96110000D01*
X196910000Y-96069000D02*
X198350000Y-96069000D01*
X200430000Y-96069000D02*
X201870000Y-96069000D01*
X196922000Y-96029000D02*
X198350000Y-96029000D01*
X200430000Y-96029000D02*
X201858000Y-96029000D01*
X196935000Y-95989000D02*
X198350000Y-95989000D01*
X200430000Y-95989000D02*
X201845000Y-95989000D01*
X196948000Y-95949000D02*
X198350000Y-95949000D01*
X200430000Y-95949000D02*
X201832000Y-95949000D01*
X196962000Y-95909000D02*
X198350000Y-95909000D01*
X200430000Y-95909000D02*
X201818000Y-95909000D01*
X196976000Y-95869000D02*
X198350000Y-95869000D01*
X200430000Y-95869000D02*
X201804000Y-95869000D01*
X196992000Y-95829000D02*
X198350000Y-95829000D01*
X200430000Y-95829000D02*
X201788000Y-95829000D01*
X197008000Y-95789000D02*
X198350000Y-95789000D01*
X200430000Y-95789000D02*
X201772000Y-95789000D01*
X197025000Y-95749000D02*
X198350000Y-95749000D01*
X200430000Y-95749000D02*
X201755000Y-95749000D01*
X197042000Y-95709000D02*
X198350000Y-95709000D01*
X200430000Y-95709000D02*
X201738000Y-95709000D01*
X197061000Y-95669000D02*
X198350000Y-95669000D01*
X200430000Y-95669000D02*
X201719000Y-95669000D01*
X197080000Y-95629000D02*
X198350000Y-95629000D01*
X200430000Y-95629000D02*
X201700000Y-95629000D01*
X197100000Y-95589000D02*
X198350000Y-95589000D01*
X200430000Y-95589000D02*
X201680000Y-95589000D01*
X197122000Y-95549000D02*
X198350000Y-95549000D01*
X200430000Y-95549000D02*
X201658000Y-95549000D01*
X197143000Y-95509000D02*
X198350000Y-95509000D01*
X200430000Y-95509000D02*
X201637000Y-95509000D01*
X197166000Y-95469000D02*
X198350000Y-95469000D01*
X200430000Y-95469000D02*
X201614000Y-95469000D01*
X197190000Y-95429000D02*
X198350000Y-95429000D01*
X200430000Y-95429000D02*
X201590000Y-95429000D01*
X197215000Y-95389000D02*
X198350000Y-95389000D01*
X200430000Y-95389000D02*
X201565000Y-95389000D01*
X197241000Y-95349000D02*
X198350000Y-95349000D01*
X200430000Y-95349000D02*
X201539000Y-95349000D01*
X197268000Y-95309000D02*
X198350000Y-95309000D01*
X200430000Y-95309000D02*
X201512000Y-95309000D01*
X197295000Y-95269000D02*
X198350000Y-95269000D01*
X200430000Y-95269000D02*
X201485000Y-95269000D01*
X197325000Y-95229000D02*
X198350000Y-95229000D01*
X200430000Y-95229000D02*
X201455000Y-95229000D01*
X197355000Y-95189000D02*
X198350000Y-95189000D01*
X200430000Y-95189000D02*
X201425000Y-95189000D01*
X197386000Y-95149000D02*
X198350000Y-95149000D01*
X200430000Y-95149000D02*
X201394000Y-95149000D01*
X197419000Y-95109000D02*
X198350000Y-95109000D01*
X200430000Y-95109000D02*
X201361000Y-95109000D01*
X197453000Y-95069000D02*
X198350000Y-95069000D01*
X200430000Y-95069000D02*
X201327000Y-95069000D01*
X197489000Y-95029000D02*
X198350000Y-95029000D01*
X200430000Y-95029000D02*
X201291000Y-95029000D01*
X197526000Y-94989000D02*
X198350000Y-94989000D01*
X200430000Y-94989000D02*
X201254000Y-94989000D01*
X197564000Y-94949000D02*
X198350000Y-94949000D01*
X200430000Y-94949000D02*
X201216000Y-94949000D01*
X197605000Y-94909000D02*
X198350000Y-94909000D01*
X200430000Y-94909000D02*
X201175000Y-94909000D01*
X197647000Y-94869000D02*
X198350000Y-94869000D01*
X200430000Y-94869000D02*
X201133000Y-94869000D01*
X197691000Y-94829000D02*
X198350000Y-94829000D01*
X200430000Y-94829000D02*
X201089000Y-94829000D01*
X197737000Y-94789000D02*
X198350000Y-94789000D01*
X200430000Y-94789000D02*
X201043000Y-94789000D01*
X197785000Y-94749000D02*
X200995000Y-94749000D01*
X197836000Y-94709000D02*
X200944000Y-94709000D01*
X197890000Y-94669000D02*
X200890000Y-94669000D01*
X197947000Y-94629000D02*
X200833000Y-94629000D01*
X198007000Y-94589000D02*
X200773000Y-94589000D01*
X198071000Y-94549000D02*
X200709000Y-94549000D01*
X198139000Y-94509000D02*
X200641000Y-94509000D01*
X198212000Y-94469000D02*
X200568000Y-94469000D01*
X198292000Y-94429000D02*
X200488000Y-94429000D01*
X198379000Y-94389000D02*
X200401000Y-94389000D01*
X198475000Y-94349000D02*
X200305000Y-94349000D01*
X198585000Y-94309000D02*
X200195000Y-94309000D01*
X198713000Y-94269000D02*
X200067000Y-94269000D01*
X198872000Y-94229000D02*
X199908000Y-94229000D01*
X199106000Y-94189000D02*
X199674000Y-94189000D01*
X197915000Y-99594775D02*
X197915000Y-99094775D01*
X197665000Y-99344775D02*
X198165000Y-99344775D01*
X204620000Y-95620000D02*
X204620000Y-92380000D01*
X206860000Y-95620000D02*
X206860000Y-92380000D01*
X204620000Y-95620000D02*
X204685000Y-95620000D01*
X206795000Y-95620000D02*
X206860000Y-95620000D01*
X204620000Y-92380000D02*
X204685000Y-92380000D01*
X206795000Y-92380000D02*
X206860000Y-92380000D01*
X174710000Y-92738748D02*
X174710000Y-93261252D01*
X173290000Y-92738748D02*
X173290000Y-93261252D01*
X177710000Y-83286252D02*
X177710000Y-82763748D01*
X176290000Y-83286252D02*
X176290000Y-82763748D01*
X170510000Y-95055000D02*
X170510000Y-95120000D01*
X170510000Y-92880000D02*
X170510000Y-92945000D01*
X167270000Y-95055000D02*
X167270000Y-95120000D01*
X167270000Y-92880000D02*
X167270000Y-92945000D01*
X167270000Y-95120000D02*
X170510000Y-95120000D01*
X167270000Y-92880000D02*
X170510000Y-92880000D01*
X169275000Y-89554775D02*
X169775000Y-89554775D01*
X169525000Y-89804775D02*
X169525000Y-89304775D01*
X170716000Y-84399000D02*
X171284000Y-84399000D01*
X170482000Y-84439000D02*
X171518000Y-84439000D01*
X170323000Y-84479000D02*
X171677000Y-84479000D01*
X170195000Y-84519000D02*
X171805000Y-84519000D01*
X170085000Y-84559000D02*
X171915000Y-84559000D01*
X169989000Y-84599000D02*
X172011000Y-84599000D01*
X169902000Y-84639000D02*
X172098000Y-84639000D01*
X169822000Y-84679000D02*
X172178000Y-84679000D01*
X169749000Y-84719000D02*
X172251000Y-84719000D01*
X169681000Y-84759000D02*
X172319000Y-84759000D01*
X169617000Y-84799000D02*
X172383000Y-84799000D01*
X169557000Y-84839000D02*
X172443000Y-84839000D01*
X169500000Y-84879000D02*
X172500000Y-84879000D01*
X169446000Y-84919000D02*
X172554000Y-84919000D01*
X169395000Y-84959000D02*
X172605000Y-84959000D01*
X172040000Y-84999000D02*
X172653000Y-84999000D01*
X169347000Y-84999000D02*
X169960000Y-84999000D01*
X172040000Y-85039000D02*
X172699000Y-85039000D01*
X169301000Y-85039000D02*
X169960000Y-85039000D01*
X172040000Y-85079000D02*
X172743000Y-85079000D01*
X169257000Y-85079000D02*
X169960000Y-85079000D01*
X172040000Y-85119000D02*
X172785000Y-85119000D01*
X169215000Y-85119000D02*
X169960000Y-85119000D01*
X172040000Y-85159000D02*
X172826000Y-85159000D01*
X169174000Y-85159000D02*
X169960000Y-85159000D01*
X172040000Y-85199000D02*
X172864000Y-85199000D01*
X169136000Y-85199000D02*
X169960000Y-85199000D01*
X172040000Y-85239000D02*
X172901000Y-85239000D01*
X169099000Y-85239000D02*
X169960000Y-85239000D01*
X172040000Y-85279000D02*
X172937000Y-85279000D01*
X169063000Y-85279000D02*
X169960000Y-85279000D01*
X172040000Y-85319000D02*
X172971000Y-85319000D01*
X169029000Y-85319000D02*
X169960000Y-85319000D01*
X172040000Y-85359000D02*
X173004000Y-85359000D01*
X168996000Y-85359000D02*
X169960000Y-85359000D01*
X172040000Y-85399000D02*
X173035000Y-85399000D01*
X168965000Y-85399000D02*
X169960000Y-85399000D01*
X172040000Y-85439000D02*
X173065000Y-85439000D01*
X168935000Y-85439000D02*
X169960000Y-85439000D01*
X172040000Y-85479000D02*
X173095000Y-85479000D01*
X168905000Y-85479000D02*
X169960000Y-85479000D01*
X172040000Y-85519000D02*
X173122000Y-85519000D01*
X168878000Y-85519000D02*
X169960000Y-85519000D01*
X172040000Y-85559000D02*
X173149000Y-85559000D01*
X168851000Y-85559000D02*
X169960000Y-85559000D01*
X172040000Y-85599000D02*
X173175000Y-85599000D01*
X168825000Y-85599000D02*
X169960000Y-85599000D01*
X172040000Y-85639000D02*
X173200000Y-85639000D01*
X168800000Y-85639000D02*
X169960000Y-85639000D01*
X172040000Y-85679000D02*
X173224000Y-85679000D01*
X168776000Y-85679000D02*
X169960000Y-85679000D01*
X172040000Y-85719000D02*
X173247000Y-85719000D01*
X168753000Y-85719000D02*
X169960000Y-85719000D01*
X172040000Y-85759000D02*
X173268000Y-85759000D01*
X168732000Y-85759000D02*
X169960000Y-85759000D01*
X172040000Y-85799000D02*
X173290000Y-85799000D01*
X168710000Y-85799000D02*
X169960000Y-85799000D01*
X172040000Y-85839000D02*
X173310000Y-85839000D01*
X168690000Y-85839000D02*
X169960000Y-85839000D01*
X172040000Y-85879000D02*
X173329000Y-85879000D01*
X168671000Y-85879000D02*
X169960000Y-85879000D01*
X172040000Y-85919000D02*
X173348000Y-85919000D01*
X168652000Y-85919000D02*
X169960000Y-85919000D01*
X172040000Y-85959000D02*
X173365000Y-85959000D01*
X168635000Y-85959000D02*
X169960000Y-85959000D01*
X172040000Y-85999000D02*
X173382000Y-85999000D01*
X168618000Y-85999000D02*
X169960000Y-85999000D01*
X172040000Y-86039000D02*
X173398000Y-86039000D01*
X168602000Y-86039000D02*
X169960000Y-86039000D01*
X172040000Y-86079000D02*
X173414000Y-86079000D01*
X168586000Y-86079000D02*
X169960000Y-86079000D01*
X172040000Y-86119000D02*
X173428000Y-86119000D01*
X168572000Y-86119000D02*
X169960000Y-86119000D01*
X172040000Y-86159000D02*
X173442000Y-86159000D01*
X168558000Y-86159000D02*
X169960000Y-86159000D01*
X172040000Y-86199000D02*
X173455000Y-86199000D01*
X168545000Y-86199000D02*
X169960000Y-86199000D01*
X172040000Y-86239000D02*
X173468000Y-86239000D01*
X168532000Y-86239000D02*
X169960000Y-86239000D01*
X172040000Y-86279000D02*
X173480000Y-86279000D01*
X168520000Y-86279000D02*
X169960000Y-86279000D01*
X172040000Y-86320000D02*
X173491000Y-86320000D01*
X168509000Y-86320000D02*
X169960000Y-86320000D01*
X172040000Y-86360000D02*
X173501000Y-86360000D01*
X168499000Y-86360000D02*
X169960000Y-86360000D01*
X172040000Y-86400000D02*
X173511000Y-86400000D01*
X168489000Y-86400000D02*
X169960000Y-86400000D01*
X172040000Y-86440000D02*
X173520000Y-86440000D01*
X168480000Y-86440000D02*
X169960000Y-86440000D01*
X172040000Y-86480000D02*
X173528000Y-86480000D01*
X168472000Y-86480000D02*
X169960000Y-86480000D01*
X172040000Y-86520000D02*
X173536000Y-86520000D01*
X168464000Y-86520000D02*
X169960000Y-86520000D01*
X172040000Y-86560000D02*
X173543000Y-86560000D01*
X168457000Y-86560000D02*
X169960000Y-86560000D01*
X172040000Y-86600000D02*
X173550000Y-86600000D01*
X168450000Y-86600000D02*
X169960000Y-86600000D01*
X172040000Y-86640000D02*
X173556000Y-86640000D01*
X168444000Y-86640000D02*
X169960000Y-86640000D01*
X172040000Y-86680000D02*
X173561000Y-86680000D01*
X168439000Y-86680000D02*
X169960000Y-86680000D01*
X172040000Y-86720000D02*
X173565000Y-86720000D01*
X168435000Y-86720000D02*
X169960000Y-86720000D01*
X172040000Y-86760000D02*
X173569000Y-86760000D01*
X168431000Y-86760000D02*
X169960000Y-86760000D01*
X172040000Y-86800000D02*
X173573000Y-86800000D01*
X168427000Y-86800000D02*
X169960000Y-86800000D01*
X172040000Y-86840000D02*
X173576000Y-86840000D01*
X168424000Y-86840000D02*
X169960000Y-86840000D01*
X172040000Y-86880000D02*
X173578000Y-86880000D01*
X168422000Y-86880000D02*
X169960000Y-86880000D01*
X172040000Y-86920000D02*
X173579000Y-86920000D01*
X168421000Y-86920000D02*
X169960000Y-86920000D01*
X168420000Y-86960000D02*
X169960000Y-86960000D01*
X172040000Y-86960000D02*
X173580000Y-86960000D01*
X168420000Y-87000000D02*
X169960000Y-87000000D01*
X172040000Y-87000000D02*
X173580000Y-87000000D01*
X173620000Y-87000000D02*
G75*
G03X173620000Y-87000000I-2620000J0D01*
G01*
X162642335Y-82021392D02*
G75*
G03X159410000Y-81864484I-1672335J-1078608D01*
G01*
X162642335Y-84178608D02*
G75*
G02X159410000Y-84335516I-1672335J1078608D01*
G01*
X162011130Y-82020163D02*
G75*
G03X159929039Y-82020000I-1041130J-1079837D01*
G01*
X162011130Y-84179837D02*
G75*
G02X159929039Y-84180000I-1041130J1079837D01*
G01*
X159410000Y-81864000D02*
X159410000Y-82020000D01*
X159410000Y-84180000D02*
X159410000Y-84336000D01*
X203940000Y-66400000D02*
X202440000Y-66400000D01*
X202440000Y-66400000D02*
X202440000Y-66670000D01*
X202440000Y-66670000D02*
X199610000Y-66670000D01*
X203940000Y-73300000D02*
X202440000Y-73300000D01*
X202440000Y-73300000D02*
X202440000Y-73030000D01*
X202440000Y-73030000D02*
X201340000Y-73030000D01*
X203940000Y-81640000D02*
X202440000Y-81640000D01*
X202440000Y-81640000D02*
X202440000Y-81910000D01*
X202440000Y-81910000D02*
X199610000Y-81910000D01*
X203940000Y-88540000D02*
X202440000Y-88540000D01*
X202440000Y-88540000D02*
X202440000Y-88270000D01*
X202440000Y-88270000D02*
X201340000Y-88270000D01*
X202440000Y-65665000D02*
X201340000Y-65665000D01*
X202440000Y-65935000D02*
X202440000Y-65665000D01*
X203940000Y-65935000D02*
X202440000Y-65935000D01*
X202440000Y-59305000D02*
X199610000Y-59305000D01*
X202440000Y-59035000D02*
X202440000Y-59305000D01*
X203940000Y-59035000D02*
X202440000Y-59035000D01*
X203940000Y-51160000D02*
X202440000Y-51160000D01*
X202440000Y-51160000D02*
X202440000Y-51430000D01*
X202440000Y-51430000D02*
X199610000Y-51430000D01*
X203940000Y-58060000D02*
X202440000Y-58060000D01*
X202440000Y-58060000D02*
X202440000Y-57790000D01*
X202440000Y-57790000D02*
X201340000Y-57790000D01*
X202530000Y-80650000D02*
X201430000Y-80650000D01*
X202530000Y-80920000D02*
X202530000Y-80650000D01*
X204030000Y-80920000D02*
X202530000Y-80920000D01*
X202530000Y-74290000D02*
X199700000Y-74290000D01*
X202530000Y-74020000D02*
X202530000Y-74290000D01*
X204030000Y-74020000D02*
X202530000Y-74020000D01*
X213360000Y-100330000D02*
X213360000Y-90170000D01*
X212090000Y-100330000D02*
X219710000Y-100330000D01*
X219710000Y-100330000D02*
X219710000Y-90170000D01*
X219710000Y-90170000D02*
X212090000Y-90170000D01*
X212090000Y-90170000D02*
X212090000Y-100330000D01*
X212090000Y-58530000D02*
X212090000Y-68690000D01*
X219710000Y-58530000D02*
X212090000Y-58530000D01*
X219710000Y-68690000D02*
X219710000Y-58530000D01*
X212090000Y-68690000D02*
X219710000Y-68690000D01*
X213360000Y-68690000D02*
X213360000Y-58530000D01*
X213360000Y-79240000D02*
X213360000Y-69080000D01*
X212090000Y-79240000D02*
X219710000Y-79240000D01*
X219710000Y-79240000D02*
X219710000Y-69080000D01*
X219710000Y-69080000D02*
X212090000Y-69080000D01*
X212090000Y-69080000D02*
X212090000Y-79240000D01*
X212090000Y-79630000D02*
X212090000Y-89790000D01*
X219710000Y-79630000D02*
X212090000Y-79630000D01*
X219710000Y-89790000D02*
X219710000Y-79630000D01*
X212090000Y-89790000D02*
X219710000Y-89790000D01*
X213360000Y-89790000D02*
X213360000Y-79630000D01*
X191508748Y-69290000D02*
X192031252Y-69290000D01*
X191508748Y-70710000D02*
X192031252Y-70710000D01*
X184133748Y-70710000D02*
X184656252Y-70710000D01*
X184133748Y-69290000D02*
X184656252Y-69290000D01*
X166710000Y-82763748D02*
X166710000Y-83286252D01*
X165290000Y-82763748D02*
X165290000Y-83286252D01*
X164800000Y-93100000D02*
X164800000Y-88600000D01*
X160800000Y-94350000D02*
X162300000Y-94350000D01*
X158300000Y-88600000D02*
X158300000Y-93100000D01*
X162300000Y-87350000D02*
X160800000Y-87350000D01*
X185440000Y-100451000D02*
X185440000Y-88730000D01*
X194060000Y-100451000D02*
X194060000Y-88730000D01*
X185440000Y-100451000D02*
X194060000Y-100451000D01*
X185440000Y-88730000D02*
X194060000Y-88730000D01*
X193060000Y-100691000D02*
X194300000Y-100691000D01*
X194300000Y-100691000D02*
X194300000Y-99451000D01*
X183410000Y-91090000D02*
X182150000Y-91090000D01*
X176590000Y-91090000D02*
X177850000Y-91090000D01*
X183410000Y-94850000D02*
X183410000Y-91090000D01*
X176590000Y-97100000D02*
X176590000Y-91090000D01*
X215660000Y-57880000D02*
X218320000Y-57880000D01*
X215660000Y-50200000D02*
X215660000Y-57880000D01*
X218320000Y-50200000D02*
X218320000Y-57880000D01*
X215660000Y-50200000D02*
X218320000Y-50200000D01*
X215660000Y-48930000D02*
X215660000Y-47600000D01*
X215660000Y-47600000D02*
X216990000Y-47600000D01*
D16*
X187574523Y-80239761D02*
X186304523Y-80239761D01*
X187453571Y-78909285D02*
X187514047Y-78969761D01*
X187574523Y-79151190D01*
X187574523Y-79272142D01*
X187514047Y-79453571D01*
X187393095Y-79574523D01*
X187272142Y-79635000D01*
X187030238Y-79695476D01*
X186848809Y-79695476D01*
X186606904Y-79635000D01*
X186485952Y-79574523D01*
X186365000Y-79453571D01*
X186304523Y-79272142D01*
X186304523Y-79151190D01*
X186365000Y-78969761D01*
X186425476Y-78909285D01*
X187574523Y-77699761D02*
X187574523Y-78425476D01*
X187574523Y-78062619D02*
X186304523Y-78062619D01*
X186485952Y-78183571D01*
X186606904Y-78304523D01*
X186667380Y-78425476D01*
D17*
X165911927Y-55296332D02*
X166637641Y-55296332D01*
X165766784Y-55804332D02*
X166274784Y-54026332D01*
X166782784Y-55804332D01*
X168089070Y-55804332D02*
X167218213Y-55804332D01*
X167653641Y-55804332D02*
X167653641Y-54026332D01*
X167508499Y-54280332D01*
X167363356Y-54449665D01*
X167218213Y-54534332D01*
D18*
X160372047Y-51693833D02*
X160855857Y-51693833D01*
X160275285Y-51984119D02*
X160613952Y-50968119D01*
X160952619Y-51984119D01*
X161291285Y-51984119D02*
X161291285Y-51306785D01*
X161291285Y-51500309D02*
X161339666Y-51403547D01*
X161388047Y-51355166D01*
X161484809Y-51306785D01*
X161581571Y-51306785D01*
X162355666Y-51984119D02*
X162355666Y-50968119D01*
X162355666Y-51935738D02*
X162258904Y-51984119D01*
X162065380Y-51984119D01*
X161968619Y-51935738D01*
X161920238Y-51887357D01*
X161871857Y-51790595D01*
X161871857Y-51500309D01*
X161920238Y-51403547D01*
X161968619Y-51355166D01*
X162065380Y-51306785D01*
X162258904Y-51306785D01*
X162355666Y-51355166D01*
X163274904Y-51306785D02*
X163274904Y-51984119D01*
X162839476Y-51306785D02*
X162839476Y-51838976D01*
X162887857Y-51935738D01*
X162984619Y-51984119D01*
X163129761Y-51984119D01*
X163226523Y-51935738D01*
X163274904Y-51887357D01*
X163758714Y-51984119D02*
X163758714Y-51306785D01*
X163758714Y-50968119D02*
X163710333Y-51016500D01*
X163758714Y-51064880D01*
X163807095Y-51016500D01*
X163758714Y-50968119D01*
X163758714Y-51064880D01*
X164242523Y-51306785D02*
X164242523Y-51984119D01*
X164242523Y-51403547D02*
X164290904Y-51355166D01*
X164387666Y-51306785D01*
X164532809Y-51306785D01*
X164629571Y-51355166D01*
X164677952Y-51451928D01*
X164677952Y-51984119D01*
X165306904Y-51984119D02*
X165210142Y-51935738D01*
X165161761Y-51887357D01*
X165113380Y-51790595D01*
X165113380Y-51500309D01*
X165161761Y-51403547D01*
X165210142Y-51355166D01*
X165306904Y-51306785D01*
X165452047Y-51306785D01*
X165548809Y-51355166D01*
X165597190Y-51403547D01*
X165645571Y-51500309D01*
X165645571Y-51790595D01*
X165597190Y-51887357D01*
X165548809Y-51935738D01*
X165452047Y-51984119D01*
X165306904Y-51984119D01*
X165839095Y-52080880D02*
X166613190Y-52080880D01*
X166855095Y-51984119D02*
X166855095Y-50968119D01*
X167242142Y-50968119D01*
X167338904Y-51016500D01*
X167387285Y-51064880D01*
X167435666Y-51161642D01*
X167435666Y-51306785D01*
X167387285Y-51403547D01*
X167338904Y-51451928D01*
X167242142Y-51500309D01*
X166855095Y-51500309D01*
X167871095Y-51984119D02*
X167871095Y-51306785D01*
X167871095Y-51500309D02*
X167919476Y-51403547D01*
X167967857Y-51355166D01*
X168064619Y-51306785D01*
X168161380Y-51306785D01*
X168645190Y-51984119D02*
X168548428Y-51935738D01*
X168500047Y-51887357D01*
X168451666Y-51790595D01*
X168451666Y-51500309D01*
X168500047Y-51403547D01*
X168548428Y-51355166D01*
X168645190Y-51306785D01*
X168790333Y-51306785D01*
X168887095Y-51355166D01*
X168935476Y-51403547D01*
X168983857Y-51500309D01*
X168983857Y-51790595D01*
X168935476Y-51887357D01*
X168887095Y-51935738D01*
X168790333Y-51984119D01*
X168645190Y-51984119D01*
X169177380Y-52080880D02*
X169951476Y-52080880D01*
X170193380Y-51984119D02*
X170193380Y-50968119D01*
X170532047Y-51693833D01*
X170870714Y-50968119D01*
X170870714Y-51984119D01*
X171354523Y-51984119D02*
X171354523Y-51306785D01*
X171354523Y-50968119D02*
X171306142Y-51016500D01*
X171354523Y-51064880D01*
X171402904Y-51016500D01*
X171354523Y-50968119D01*
X171354523Y-51064880D01*
X171838333Y-51306785D02*
X171838333Y-51984119D01*
X171838333Y-51403547D02*
X171886714Y-51355166D01*
X171983476Y-51306785D01*
X172128619Y-51306785D01*
X172225380Y-51355166D01*
X172273761Y-51451928D01*
X172273761Y-51984119D01*
X172757571Y-51984119D02*
X172757571Y-51306785D01*
X172757571Y-50968119D02*
X172709190Y-51016500D01*
X172757571Y-51064880D01*
X172805952Y-51016500D01*
X172757571Y-50968119D01*
X172757571Y-51064880D01*
D12*
X187285714Y-55166666D02*
X187761904Y-55166666D01*
X187190476Y-55452380D02*
X187523809Y-54452380D01*
X187857142Y-55452380D01*
X188142857Y-54547619D02*
X188190476Y-54500000D01*
X188285714Y-54452380D01*
X188523809Y-54452380D01*
X188619047Y-54500000D01*
X188666666Y-54547619D01*
X188714285Y-54642857D01*
X188714285Y-54738095D01*
X188666666Y-54880952D01*
X188095238Y-55452380D01*
X188714285Y-55452380D01*
D10*
X185904761Y-51357142D02*
X185857142Y-51404761D01*
X185714285Y-51452380D01*
X185619047Y-51452380D01*
X185476190Y-51404761D01*
X185380952Y-51309523D01*
X185333333Y-51214285D01*
X185285714Y-51023809D01*
X185285714Y-50880952D01*
X185333333Y-50690476D01*
X185380952Y-50595238D01*
X185476190Y-50500000D01*
X185619047Y-50452380D01*
X185714285Y-50452380D01*
X185857142Y-50500000D01*
X185904761Y-50547619D01*
X186904761Y-51357142D02*
X186857142Y-51404761D01*
X186714285Y-51452380D01*
X186619047Y-51452380D01*
X186476190Y-51404761D01*
X186380952Y-51309523D01*
X186333333Y-51214285D01*
X186285714Y-51023809D01*
X186285714Y-50880952D01*
X186333333Y-50690476D01*
X186380952Y-50595238D01*
X186476190Y-50500000D01*
X186619047Y-50452380D01*
X186714285Y-50452380D01*
X186857142Y-50500000D01*
X186904761Y-50547619D01*
X187857142Y-51452380D02*
X187285714Y-51452380D01*
X187571428Y-51452380D02*
X187571428Y-50452380D01*
X187476190Y-50595238D01*
X187380952Y-50690476D01*
X187285714Y-50738095D01*
X188809523Y-51452380D02*
X188238095Y-51452380D01*
X188523809Y-51452380D02*
X188523809Y-50452380D01*
X188428571Y-50595238D01*
X188333333Y-50690476D01*
X188238095Y-50738095D01*
X189428571Y-50452380D02*
X189523809Y-50452380D01*
X189619047Y-50500000D01*
X189666666Y-50547619D01*
X189714285Y-50642857D01*
X189761904Y-50833333D01*
X189761904Y-51071428D01*
X189714285Y-51261904D01*
X189666666Y-51357142D01*
X189619047Y-51404761D01*
X189523809Y-51452380D01*
X189428571Y-51452380D01*
X189333333Y-51404761D01*
X189285714Y-51357142D01*
X189238095Y-51261904D01*
X189190476Y-51071428D01*
X189190476Y-50833333D01*
X189238095Y-50642857D01*
X189285714Y-50547619D01*
X189333333Y-50500000D01*
X189428571Y-50452380D01*
X190714285Y-51452380D02*
X190142857Y-51452380D01*
X190428571Y-51452380D02*
X190428571Y-50452380D01*
X190333333Y-50595238D01*
X190238095Y-50690476D01*
X190142857Y-50738095D01*
X195997142Y-96956666D02*
X196044761Y-97004285D01*
X196092380Y-97147142D01*
X196092380Y-97242380D01*
X196044761Y-97385238D01*
X195949523Y-97480476D01*
X195854285Y-97528095D01*
X195663809Y-97575714D01*
X195520952Y-97575714D01*
X195330476Y-97528095D01*
X195235238Y-97480476D01*
X195140000Y-97385238D01*
X195092380Y-97242380D01*
X195092380Y-97147142D01*
X195140000Y-97004285D01*
X195187619Y-96956666D01*
X196092380Y-96004285D02*
X196092380Y-96575714D01*
X196092380Y-96290000D02*
X195092380Y-96290000D01*
X195235238Y-96385238D01*
X195330476Y-96480476D01*
X195378095Y-96575714D01*
X203847142Y-94166666D02*
X203894761Y-94214285D01*
X203942380Y-94357142D01*
X203942380Y-94452380D01*
X203894761Y-94595238D01*
X203799523Y-94690476D01*
X203704285Y-94738095D01*
X203513809Y-94785714D01*
X203370952Y-94785714D01*
X203180476Y-94738095D01*
X203085238Y-94690476D01*
X202990000Y-94595238D01*
X202942380Y-94452380D01*
X202942380Y-94357142D01*
X202990000Y-94214285D01*
X203037619Y-94166666D01*
X203037619Y-93785714D02*
X202990000Y-93738095D01*
X202942380Y-93642857D01*
X202942380Y-93404761D01*
X202990000Y-93309523D01*
X203037619Y-93261904D01*
X203132857Y-93214285D01*
X203228095Y-93214285D01*
X203370952Y-93261904D01*
X203942380Y-93833333D01*
X203942380Y-93214285D01*
X172607142Y-93166666D02*
X172654761Y-93214285D01*
X172702380Y-93357142D01*
X172702380Y-93452380D01*
X172654761Y-93595238D01*
X172559523Y-93690476D01*
X172464285Y-93738095D01*
X172273809Y-93785714D01*
X172130952Y-93785714D01*
X171940476Y-93738095D01*
X171845238Y-93690476D01*
X171750000Y-93595238D01*
X171702380Y-93452380D01*
X171702380Y-93357142D01*
X171750000Y-93214285D01*
X171797619Y-93166666D01*
X171702380Y-92833333D02*
X171702380Y-92214285D01*
X172083333Y-92547619D01*
X172083333Y-92404761D01*
X172130952Y-92309523D01*
X172178571Y-92261904D01*
X172273809Y-92214285D01*
X172511904Y-92214285D01*
X172607142Y-92261904D01*
X172654761Y-92309523D01*
X172702380Y-92404761D01*
X172702380Y-92690476D01*
X172654761Y-92785714D01*
X172607142Y-92833333D01*
X175707142Y-83191666D02*
X175754761Y-83239285D01*
X175802380Y-83382142D01*
X175802380Y-83477380D01*
X175754761Y-83620238D01*
X175659523Y-83715476D01*
X175564285Y-83763095D01*
X175373809Y-83810714D01*
X175230952Y-83810714D01*
X175040476Y-83763095D01*
X174945238Y-83715476D01*
X174850000Y-83620238D01*
X174802380Y-83477380D01*
X174802380Y-83382142D01*
X174850000Y-83239285D01*
X174897619Y-83191666D01*
X175135714Y-82334523D02*
X175802380Y-82334523D01*
X174754761Y-82572619D02*
X175469047Y-82810714D01*
X175469047Y-82191666D01*
X168723333Y-92107142D02*
X168675714Y-92154761D01*
X168532857Y-92202380D01*
X168437619Y-92202380D01*
X168294761Y-92154761D01*
X168199523Y-92059523D01*
X168151904Y-91964285D01*
X168104285Y-91773809D01*
X168104285Y-91630952D01*
X168151904Y-91440476D01*
X168199523Y-91345238D01*
X168294761Y-91250000D01*
X168437619Y-91202380D01*
X168532857Y-91202380D01*
X168675714Y-91250000D01*
X168723333Y-91297619D01*
X169628095Y-91202380D02*
X169151904Y-91202380D01*
X169104285Y-91678571D01*
X169151904Y-91630952D01*
X169247142Y-91583333D01*
X169485238Y-91583333D01*
X169580476Y-91630952D01*
X169628095Y-91678571D01*
X169675714Y-91773809D01*
X169675714Y-92011904D01*
X169628095Y-92107142D01*
X169580476Y-92154761D01*
X169485238Y-92202380D01*
X169247142Y-92202380D01*
X169151904Y-92154761D01*
X169104285Y-92107142D01*
X170833333Y-83357142D02*
X170785714Y-83404761D01*
X170642857Y-83452380D01*
X170547619Y-83452380D01*
X170404761Y-83404761D01*
X170309523Y-83309523D01*
X170261904Y-83214285D01*
X170214285Y-83023809D01*
X170214285Y-82880952D01*
X170261904Y-82690476D01*
X170309523Y-82595238D01*
X170404761Y-82500000D01*
X170547619Y-82452380D01*
X170642857Y-82452380D01*
X170785714Y-82500000D01*
X170833333Y-82547619D01*
X171690476Y-82452380D02*
X171500000Y-82452380D01*
X171404761Y-82500000D01*
X171357142Y-82547619D01*
X171261904Y-82690476D01*
X171214285Y-82880952D01*
X171214285Y-83261904D01*
X171261904Y-83357142D01*
X171309523Y-83404761D01*
X171404761Y-83452380D01*
X171595238Y-83452380D01*
X171690476Y-83404761D01*
X171738095Y-83357142D01*
X171785714Y-83261904D01*
X171785714Y-83023809D01*
X171738095Y-82928571D01*
X171690476Y-82880952D01*
X171595238Y-82833333D01*
X171404761Y-82833333D01*
X171309523Y-82880952D01*
X171261904Y-82928571D01*
X171214285Y-83023809D01*
X158452380Y-83838095D02*
X157452380Y-83838095D01*
X157452380Y-83600000D01*
X157500000Y-83457142D01*
X157595238Y-83361904D01*
X157690476Y-83314285D01*
X157880952Y-83266666D01*
X158023809Y-83266666D01*
X158214285Y-83314285D01*
X158309523Y-83361904D01*
X158404761Y-83457142D01*
X158452380Y-83600000D01*
X158452380Y-83838095D01*
X158452380Y-82314285D02*
X158452380Y-82885714D01*
X158452380Y-82600000D02*
X157452380Y-82600000D01*
X157595238Y-82695238D01*
X157690476Y-82790476D01*
X157738095Y-82885714D01*
X198428571Y-71285714D02*
X198476190Y-71142857D01*
X198523809Y-71095238D01*
X198619047Y-71047619D01*
X198761904Y-71047619D01*
X198857142Y-71095238D01*
X198904761Y-71142857D01*
X198952380Y-71238095D01*
X198952380Y-71619047D01*
X197952380Y-71619047D01*
X197952380Y-71285714D01*
X198000000Y-71190476D01*
X198047619Y-71142857D01*
X198142857Y-71095238D01*
X198238095Y-71095238D01*
X198333333Y-71142857D01*
X198380952Y-71190476D01*
X198428571Y-71285714D01*
X198428571Y-71619047D01*
X198952380Y-70142857D02*
X198952380Y-70619047D01*
X197952380Y-70619047D01*
X197952380Y-69809523D02*
X198761904Y-69809523D01*
X198857142Y-69761904D01*
X198904761Y-69714285D01*
X198952380Y-69619047D01*
X198952380Y-69428571D01*
X198904761Y-69333333D01*
X198857142Y-69285714D01*
X198761904Y-69238095D01*
X197952380Y-69238095D01*
X198428571Y-68761904D02*
X198428571Y-68428571D01*
X198952380Y-68285714D02*
X198952380Y-68761904D01*
X197952380Y-68761904D01*
X197952380Y-68285714D01*
X198952380Y-67333333D02*
X198952380Y-67904761D01*
X198952380Y-67619047D02*
X197952380Y-67619047D01*
X198095238Y-67714285D01*
X198190476Y-67809523D01*
X198238095Y-67904761D01*
X198857142Y-85738095D02*
X198904761Y-85785714D01*
X198952380Y-85928571D01*
X198952380Y-86023809D01*
X198904761Y-86166666D01*
X198809523Y-86261904D01*
X198714285Y-86309523D01*
X198523809Y-86357142D01*
X198380952Y-86357142D01*
X198190476Y-86309523D01*
X198095238Y-86261904D01*
X198000000Y-86166666D01*
X197952380Y-86023809D01*
X197952380Y-85928571D01*
X198000000Y-85785714D01*
X198047619Y-85738095D01*
X197952380Y-85404761D02*
X198952380Y-85166666D01*
X198238095Y-84976190D01*
X198952380Y-84785714D01*
X197952380Y-84547619D01*
X198952380Y-83642857D02*
X198952380Y-84214285D01*
X198952380Y-83928571D02*
X197952380Y-83928571D01*
X198095238Y-84023809D01*
X198190476Y-84119047D01*
X198238095Y-84214285D01*
X198100000Y-64642857D02*
X198052380Y-64738095D01*
X198052380Y-64880952D01*
X198100000Y-65023809D01*
X198195238Y-65119047D01*
X198290476Y-65166666D01*
X198480952Y-65214285D01*
X198623809Y-65214285D01*
X198814285Y-65166666D01*
X198909523Y-65119047D01*
X199004761Y-65023809D01*
X199052380Y-64880952D01*
X199052380Y-64785714D01*
X199004761Y-64642857D01*
X198957142Y-64595238D01*
X198623809Y-64595238D01*
X198623809Y-64785714D01*
X199052380Y-63595238D02*
X198576190Y-63928571D01*
X199052380Y-64166666D02*
X198052380Y-64166666D01*
X198052380Y-63785714D01*
X198100000Y-63690476D01*
X198147619Y-63642857D01*
X198242857Y-63595238D01*
X198385714Y-63595238D01*
X198480952Y-63642857D01*
X198528571Y-63690476D01*
X198576190Y-63785714D01*
X198576190Y-64166666D01*
X198528571Y-63166666D02*
X198528571Y-62833333D01*
X199052380Y-62690476D02*
X199052380Y-63166666D01*
X198052380Y-63166666D01*
X198052380Y-62690476D01*
X198528571Y-62261904D02*
X198528571Y-61928571D01*
X199052380Y-61785714D02*
X199052380Y-62261904D01*
X198052380Y-62261904D01*
X198052380Y-61785714D01*
X199052380Y-61357142D02*
X198052380Y-61357142D01*
X199052380Y-60785714D01*
X198052380Y-60785714D01*
X199052380Y-59785714D02*
X199052380Y-60357142D01*
X199052380Y-60071428D02*
X198052380Y-60071428D01*
X198195238Y-60166666D01*
X198290476Y-60261904D01*
X198338095Y-60357142D01*
X198902380Y-55669047D02*
X198426190Y-56002380D01*
X198902380Y-56240476D02*
X197902380Y-56240476D01*
X197902380Y-55859523D01*
X197950000Y-55764285D01*
X197997619Y-55716666D01*
X198092857Y-55669047D01*
X198235714Y-55669047D01*
X198330952Y-55716666D01*
X198378571Y-55764285D01*
X198426190Y-55859523D01*
X198426190Y-56240476D01*
X198378571Y-55240476D02*
X198378571Y-54907142D01*
X198902380Y-54764285D02*
X198902380Y-55240476D01*
X197902380Y-55240476D01*
X197902380Y-54764285D01*
X198902380Y-54335714D02*
X197902380Y-54335714D01*
X197902380Y-54097619D01*
X197950000Y-53954761D01*
X198045238Y-53859523D01*
X198140476Y-53811904D01*
X198330952Y-53764285D01*
X198473809Y-53764285D01*
X198664285Y-53811904D01*
X198759523Y-53859523D01*
X198854761Y-53954761D01*
X198902380Y-54097619D01*
X198902380Y-54335714D01*
X198902380Y-52811904D02*
X198902380Y-53383333D01*
X198902380Y-53097619D02*
X197902380Y-53097619D01*
X198045238Y-53192857D01*
X198140476Y-53288095D01*
X198188095Y-53383333D01*
X197952380Y-78476190D02*
X198952380Y-78238095D01*
X198238095Y-78047619D01*
X198952380Y-77857142D01*
X197952380Y-77619047D01*
X197952380Y-77333333D02*
X198952380Y-77095238D01*
X198238095Y-76904761D01*
X198952380Y-76714285D01*
X197952380Y-76476190D01*
X198952380Y-75571428D02*
X198952380Y-76142857D01*
X198952380Y-75857142D02*
X197952380Y-75857142D01*
X198095238Y-75952380D01*
X198190476Y-76047619D01*
X198238095Y-76142857D01*
X191603333Y-68802380D02*
X191270000Y-68326190D01*
X191031904Y-68802380D02*
X191031904Y-67802380D01*
X191412857Y-67802380D01*
X191508095Y-67850000D01*
X191555714Y-67897619D01*
X191603333Y-67992857D01*
X191603333Y-68135714D01*
X191555714Y-68230952D01*
X191508095Y-68278571D01*
X191412857Y-68326190D01*
X191031904Y-68326190D01*
X192555714Y-68802380D02*
X191984285Y-68802380D01*
X192270000Y-68802380D02*
X192270000Y-67802380D01*
X192174761Y-67945238D01*
X192079523Y-68040476D01*
X191984285Y-68088095D01*
X184228333Y-68802380D02*
X183895000Y-68326190D01*
X183656904Y-68802380D02*
X183656904Y-67802380D01*
X184037857Y-67802380D01*
X184133095Y-67850000D01*
X184180714Y-67897619D01*
X184228333Y-67992857D01*
X184228333Y-68135714D01*
X184180714Y-68230952D01*
X184133095Y-68278571D01*
X184037857Y-68326190D01*
X183656904Y-68326190D01*
X184609285Y-67897619D02*
X184656904Y-67850000D01*
X184752142Y-67802380D01*
X184990238Y-67802380D01*
X185085476Y-67850000D01*
X185133095Y-67897619D01*
X185180714Y-67992857D01*
X185180714Y-68088095D01*
X185133095Y-68230952D01*
X184561666Y-68802380D01*
X185180714Y-68802380D01*
X164452380Y-83191666D02*
X163976190Y-83525000D01*
X164452380Y-83763095D02*
X163452380Y-83763095D01*
X163452380Y-83382142D01*
X163500000Y-83286904D01*
X163547619Y-83239285D01*
X163642857Y-83191666D01*
X163785714Y-83191666D01*
X163880952Y-83239285D01*
X163928571Y-83286904D01*
X163976190Y-83382142D01*
X163976190Y-83763095D01*
X163452380Y-82858333D02*
X163452380Y-82239285D01*
X163833333Y-82572619D01*
X163833333Y-82429761D01*
X163880952Y-82334523D01*
X163928571Y-82286904D01*
X164023809Y-82239285D01*
X164261904Y-82239285D01*
X164357142Y-82286904D01*
X164404761Y-82334523D01*
X164452380Y-82429761D01*
X164452380Y-82715476D01*
X164404761Y-82810714D01*
X164357142Y-82858333D01*
X157704761Y-92183333D02*
X157752380Y-92040476D01*
X157752380Y-91802380D01*
X157704761Y-91707142D01*
X157657142Y-91659523D01*
X157561904Y-91611904D01*
X157466666Y-91611904D01*
X157371428Y-91659523D01*
X157323809Y-91707142D01*
X157276190Y-91802380D01*
X157228571Y-91992857D01*
X157180952Y-92088095D01*
X157133333Y-92135714D01*
X157038095Y-92183333D01*
X156942857Y-92183333D01*
X156847619Y-92135714D01*
X156800000Y-92088095D01*
X156752380Y-91992857D01*
X156752380Y-91754761D01*
X156800000Y-91611904D01*
X156752380Y-91278571D02*
X157752380Y-91040476D01*
X157038095Y-90850000D01*
X157752380Y-90659523D01*
X156752380Y-90421428D01*
X157752380Y-89516666D02*
X157752380Y-90088095D01*
X157752380Y-89802380D02*
X156752380Y-89802380D01*
X156895238Y-89897619D01*
X156990476Y-89992857D01*
X157038095Y-90088095D01*
X183892380Y-95301904D02*
X184701904Y-95301904D01*
X184797142Y-95254285D01*
X184844761Y-95206666D01*
X184892380Y-95111428D01*
X184892380Y-94920952D01*
X184844761Y-94825714D01*
X184797142Y-94778095D01*
X184701904Y-94730476D01*
X183892380Y-94730476D01*
X184892380Y-93730476D02*
X184892380Y-94301904D01*
X184892380Y-94016190D02*
X183892380Y-94016190D01*
X184035238Y-94111428D01*
X184130476Y-94206666D01*
X184178095Y-94301904D01*
X174952380Y-93761904D02*
X175761904Y-93761904D01*
X175857142Y-93714285D01*
X175904761Y-93666666D01*
X175952380Y-93571428D01*
X175952380Y-93380952D01*
X175904761Y-93285714D01*
X175857142Y-93238095D01*
X175761904Y-93190476D01*
X174952380Y-93190476D01*
X175047619Y-92761904D02*
X175000000Y-92714285D01*
X174952380Y-92619047D01*
X174952380Y-92380952D01*
X175000000Y-92285714D01*
X175047619Y-92238095D01*
X175142857Y-92190476D01*
X175238095Y-92190476D01*
X175380952Y-92238095D01*
X175952380Y-92809523D01*
X175952380Y-92190476D01*
X216656666Y-46052380D02*
X216656666Y-46766666D01*
X216609047Y-46909523D01*
X216513809Y-47004761D01*
X216370952Y-47052380D01*
X216275714Y-47052380D01*
X217656666Y-47052380D02*
X217085238Y-47052380D01*
X217370952Y-47052380D02*
X217370952Y-46052380D01*
X217275714Y-46195238D01*
X217180476Y-46290476D01*
X217085238Y-46338095D01*
M02*
