M48
; DRILL file {KiCad (5.1.0-rc1-9-g8f320697a)} date 2019 February 20, Wednesday 21:31:15
; FORMAT={-:-/ absolute / inch / decimal}
; #@! TF.CreationDate,2019-02-20T21:31:15+01:00
; #@! TF.GenerationSoftware,Kicad,Pcbnew,(5.1.0-rc1-9-g8f320697a)
; #@! TF.FileFunction,Plated,1,2,PTH
FMAT,2
INCH
T1C0.0157
T2C0.0315
T3C0.0354
T4C0.0394
T5C0.0400
T6C0.0433
T7C0.0598
%
G90
G05
T1
X7.2894Y-3.2303
X7.4315Y-3.2776
X7.6118Y-3.2685
X7.6258Y-3.1815
X7.6739Y-3.2844
X7.8909Y-2.7077
X7.9016Y-3.0118
X7.9039Y-2.1709
X7.9055Y-2.4213
X7.9055Y-3.3228
X8.3457Y-2.0815
T2
X7.1091Y-2.5516
X7.1878Y-2.5516
X7.2665Y-2.5516
X7.3453Y-2.5516
X7.424Y-2.5516
X7.5028Y-2.5516
X7.5815Y-2.5516
X7.6602Y-2.5516
X7.85Y-3.7713
X7.85Y-3.85
X8.1Y-3.6516
X8.1Y-3.75
X6.6Y-3.7008
X6.6984Y-3.7008
X6.7323Y-3.3858
X6.7323Y-3.4646
T3
X6.2874Y-3.2717
X6.3874Y-3.2717
T4
X8.5429Y-1.9264
X8.5429Y-2.0264
X8.5429Y-2.1264
X8.5429Y-2.2264
X7.5591Y-3.622
X7.5591Y-3.722
X7.5591Y-3.822
T5
X6.2586Y-1.9835
X6.2586Y-2.0835
X6.2586Y-2.1835
X6.2586Y-2.2835
X6.2586Y-2.3835
X6.2586Y-2.4835
X6.2586Y-2.5835
X6.2586Y-2.6835
X6.2586Y-2.7835
X6.2586Y-2.8835
X6.2586Y-2.9835
X6.2586Y-3.0835
X6.5586Y-3.0835
X6.6586Y-3.0835
X6.7586Y-2.3335
X6.7586Y-2.4335
X6.7586Y-3.0835
X6.8586Y-1.9835
X6.8586Y-2.0835
X6.8586Y-2.1835
X6.8586Y-2.2835
X6.8586Y-2.3835
X6.8586Y-2.4835
X6.8586Y-2.5835
X6.8586Y-2.6835
X6.8586Y-2.7835
X6.8586Y-2.8835
X6.8586Y-2.9835
X6.8586Y-3.0835
T6
X6.2717Y-3.4488
X6.2717Y-3.7047
X6.4488Y-3.4488
X6.4488Y-3.7047
T7
X8.5Y-3.65
X8.5Y-3.85
X8.5Y-2.4043
X8.5Y-2.6043
X8.5Y-2.8197
X8.5Y-3.0197
X8.5Y-3.235
X8.5Y-3.435
T0
M30
